<svg width="30" height="30" viewBox="0 0 30 30" fill="none" xmlns="http://www.w3.org/2000/svg">
<g clip-path="url(#clip0_54_64)">
<path d="M12.9999 26C19.7808 26 25.2777 20.5031 25.2777 13.7222C25.2777 6.94141 19.7808 1.44446 12.9999 1.44446C6.21912 1.44446 0.722168 6.94141 0.722168 13.7222C0.722168 20.5031 6.21912 26 12.9999 26Z" fill="#F4900C"/>
<path d="M12.9999 24.5556C19.7808 24.5556 25.2777 19.0586 25.2777 12.2778C25.2777 5.49695 19.7808 0 12.9999 0C6.21912 0 0.722168 5.49695 0.722168 12.2778C0.722168 19.0586 6.21912 24.5556 12.9999 24.5556Z" fill="#FFCC4D"/>
<path d="M13 23.1111C18.5842 23.1111 23.1111 18.5842 23.1111 13C23.1111 7.41581 18.5842 2.88892 13 2.88892C7.41581 2.88892 2.88892 7.41581 2.88892 13C2.88892 18.5842 7.41581 23.1111 13 23.1111Z" fill="#FFE8B6"/>
<path d="M13 22.3889C18.5842 22.3889 23.1111 17.862 23.1111 12.2778C23.1111 6.69359 18.5842 2.16669 13 2.16669C7.41581 2.16669 2.88892 6.69359 2.88892 12.2778C2.88892 17.862 7.41581 22.3889 13 22.3889Z" fill="#FFAC33"/>
<path d="M6.89221 7.84047C6.89221 7.44685 7.2786 7.28941 7.2786 7.28941L12.9683 4.61719L18.7121 7.28941C18.7121 7.28941 19.1079 7.37752 19.1079 7.84335V8.3063H6.89221V7.84047Z" fill="#FFE8B6"/>
<path d="M18.7265 9.27047C18.7265 8.84869 18.3618 8.50708 17.9126 8.50708H8.03762C7.58767 8.50708 7.27423 8.84869 7.27423 9.27047C7.27423 9.55719 7.42156 9.80419 7.65628 9.93491V10.4159H9.18306V10.0339H10.7098V10.4159H12.2366V10.0339H13.7634V10.4159H15.2902V10.0339H16.817V10.4159H18.3445V9.91541C18.5734 9.77964 18.7265 9.54202 18.7265 9.27047ZM19.8712 17.3334C19.8712 17.4853 19.8109 17.6309 19.7035 17.7383C19.5961 17.8457 19.4504 17.9061 19.2985 17.9061H6.70151C6.54961 17.9061 6.40394 17.8457 6.29653 17.7383C6.18912 17.6309 6.12878 17.4853 6.12878 17.3334C6.12878 17.1815 6.18912 17.0358 6.29653 16.9284C6.40394 16.821 6.54961 16.7606 6.70151 16.7606H19.2992C19.6148 16.7606 19.8712 17.017 19.8712 17.3334Z" fill="#F4900C"/>
<path d="M19.1078 8.81113C19.1076 8.9124 19.0673 9.00947 18.9957 9.08108C18.9241 9.15268 18.827 9.193 18.7257 9.19319H7.27346C7.17619 9.18721 7.08487 9.14435 7.01811 9.07336C6.95135 9.00236 6.91418 8.90858 6.91418 8.81113C6.91418 8.71368 6.95135 8.6199 7.01811 8.54891C7.08487 8.47792 7.17619 8.43506 7.27346 8.42908L18.7257 8.43124C18.7758 8.43105 18.8254 8.44073 18.8717 8.45973C18.918 8.47873 18.9601 8.50667 18.9955 8.54196C19.031 8.57724 19.0592 8.61918 19.0785 8.66537C19.0977 8.71156 19.1077 8.76109 19.1078 8.81113ZM8.80096 9.25458H17.1997V10.1111H8.80096V9.25458Z" fill="#F4900C"/>
<path d="M9.18228 15.0432C9.18228 15.4649 8.95406 15.8065 8.67312 15.8065H8.16395C7.88301 15.8065 7.65479 15.4649 7.65479 15.0432V9.25527C7.65479 8.83349 7.88301 8.49188 8.16395 8.49188H8.67312C8.95406 8.49188 9.18228 8.83349 9.18228 9.25527V15.0432ZM18.3444 15.0432C18.3444 15.4649 18.1169 15.8065 17.8352 15.8065H17.3261C17.0451 15.8065 16.8169 15.4649 16.8169 15.0432V9.25527C16.8169 8.83349 17.0444 8.49188 17.3261 8.49188H17.8352C18.1162 8.49188 18.3444 8.83349 18.3444 9.25527V15.0432ZM12.2366 15.0432C12.2366 15.4649 12.0083 15.8065 11.7274 15.8065H11.2182C10.9373 15.8065 10.7091 15.4649 10.7091 15.0432V9.25527C10.7091 8.83349 10.9373 8.49188 11.2182 8.49188H11.7274C12.0083 8.49188 12.2366 8.83349 12.2366 9.25527V15.0432ZM15.2901 15.0432C15.2901 15.4649 15.0619 15.8065 14.781 15.8065H14.2725C13.9916 15.8065 13.7633 15.4649 13.7633 15.0432V9.25527C13.7633 8.83349 13.9916 8.49188 14.2725 8.49188H14.781C15.0619 8.49188 15.2901 8.83349 15.2901 9.25527V15.0432Z" fill="#FFD983"/>
<path d="M18.7264 15.4245C18.7264 15.8463 18.3848 16.1879 17.9631 16.1879H8.03756C7.8351 16.1879 7.64092 16.1075 7.49776 15.9643C7.3546 15.8212 7.27417 15.627 7.27417 15.4245C7.27417 15.2221 7.3546 15.0279 7.49776 14.8847C7.64092 14.7416 7.8351 14.6611 8.03756 14.6611H17.9631C18.3841 14.6611 18.7264 15.0027 18.7264 15.4245Z" fill="#FFCC4D"/>
<path d="M19.4899 16.1879C19.4899 16.6097 19.1483 16.9513 18.7265 16.9513H7.27352C7.07106 16.9513 6.87689 16.8708 6.73372 16.7277C6.59056 16.5845 6.51013 16.3904 6.51013 16.1879C6.51013 15.9854 6.59056 15.7913 6.73372 15.6481C6.87689 15.5049 7.07106 15.4245 7.27352 15.4245H18.7258C19.1476 15.4245 19.4899 15.7661 19.4899 16.1879Z" fill="#FFD983"/>
<path d="M19.8712 16.7606C19.8712 16.9125 19.8109 17.0582 19.7035 17.1656C19.5961 17.273 19.4504 17.3333 19.2985 17.3333H6.70151C6.6263 17.3333 6.55182 17.3185 6.48233 17.2897C6.41285 17.2609 6.34971 17.2187 6.29653 17.1656C6.24335 17.1124 6.20116 17.0492 6.17238 16.9798C6.1436 16.9103 6.12878 16.8358 6.12878 16.7606C6.12878 16.6854 6.1436 16.6109 6.17238 16.5414C6.20116 16.4719 6.24335 16.4088 6.29653 16.3556C6.34971 16.3024 6.41285 16.2602 6.48233 16.2315C6.55182 16.2027 6.6263 16.1879 6.70151 16.1879H19.2992C19.6148 16.1879 19.8712 16.4443 19.8712 16.7606Z" fill="#FFD983"/>
<path d="M18.7264 8.87325C18.7264 8.45147 18.3617 8.10986 17.9125 8.10986H8.03756C7.58761 8.10986 7.27417 8.45147 7.27417 8.87325C7.27417 9.15997 7.4215 9.40697 7.65623 9.5377V10.0187H9.183V9.63664H10.7098V10.0187H12.2366V9.63664H13.7633V10.0187H15.2901V9.63664H16.8169V10.0187H18.3444V9.5182C18.5733 9.38242 18.7264 9.14481 18.7264 8.87325Z" fill="#FFCC4D"/>
<path d="M6.89221 8.27882C6.89221 7.88521 7.2786 7.72776 7.2786 7.72776L12.9683 5.05554L18.7121 7.72776C18.7121 7.72776 19.1079 7.81588 19.1079 8.28171V8.49188H6.89221V8.27882Z" fill="#FFD983"/>
<path d="M13 6.02551C13 6.02551 9.06023 7.88235 8.66734 8.0499C8.27373 8.21673 8.40517 8.49118 8.66806 8.49118H17.3131C17.719 8.49118 17.6229 8.18135 17.3008 8.01379C16.9787 7.84696 13 6.02551 13 6.02551Z" fill="#FFAC33"/>
<path d="M19.1078 8.49119C19.1076 8.59246 19.0673 8.68952 18.9957 8.76113C18.9241 8.83274 18.827 8.87305 18.7257 8.87324H7.27346C7.17619 8.86726 7.08487 8.8244 7.01811 8.75341C6.95135 8.68242 6.91418 8.58864 6.91418 8.49119C6.91418 8.39374 6.95135 8.29995 7.01811 8.22896C7.08487 8.15797 7.17619 8.11511 7.27346 8.10913L18.7257 8.1113C18.7758 8.11111 18.8254 8.12079 18.8717 8.13979C18.918 8.15878 18.9601 8.18672 18.9955 8.22201C19.031 8.25729 19.0592 8.29923 19.0785 8.34542C19.0977 8.39161 19.1077 8.44114 19.1078 8.49119Z" fill="#FFD983"/>
</g>
<defs>
<clipPath id="clip0_54_64">
<rect width="26" height="26" fill="white"/>
</clipPath>
</defs>
</svg>
