<svg width="30" height="30" viewBox="0 0 30 30" fill="none" xmlns="http://www.w3.org/2000/svg">
<g opacity="0.7">
<path opacity="0.5" d="M25.5 21.1841H22.5614V18.2523C22.5614 18.1538 22.542 18.0562 22.5043 17.9652C22.4666 17.8743 22.4114 17.7916 22.3417 17.7219C22.2721 17.6523 22.1894 17.597 22.0984 17.5593C22.0074 17.5217 21.9099 17.5023 21.8114 17.5023H20.6864C20.4875 17.5023 20.2967 17.5813 20.156 17.7219C20.0154 17.8626 19.9364 18.0533 19.9364 18.2523V21.1841H16.9977C16.7982 21.1859 16.6075 21.2664 16.467 21.4081C16.3265 21.5499 16.2477 21.7413 16.2477 21.9409V23.0591C16.2477 23.1576 16.2671 23.2551 16.3048 23.3461C16.3425 23.4371 16.3978 23.5198 16.4674 23.5894C16.5371 23.659 16.6197 23.7143 16.7107 23.752C16.8017 23.7897 16.8993 23.8091 16.9977 23.8091H19.9364V26.7477C19.9364 26.9466 20.0154 27.1374 20.156 27.278C20.2967 27.4187 20.4875 27.4977 20.6864 27.4977H21.8182C22.0171 27.4977 22.2079 27.4187 22.3485 27.278C22.4892 27.1374 22.5682 26.9466 22.5682 26.7477V23.8091H25.5C25.5988 23.81 25.6967 23.7912 25.7881 23.7538C25.8795 23.7165 25.9625 23.6613 26.0324 23.5914C26.1022 23.5216 26.1574 23.4386 26.1948 23.3472C26.2321 23.2558 26.2509 23.1578 26.25 23.0591V21.9409C26.25 21.7413 26.1712 21.5499 26.0308 21.4081C25.8903 21.2664 25.6996 21.1859 25.5 21.1841Z" fill="white"/>
<path d="M14.3182 22.6364C14.3226 22.0217 14.4748 21.417 14.762 20.8736C15.0491 20.3301 15.4629 19.8636 15.9682 19.5136C16.4245 19.2741 16.896 19.0645 17.3796 18.8864C17.8103 18.654 18.1511 18.2845 18.3477 17.8364C18.4391 17.6061 18.4745 17.3574 18.4507 17.1108C18.427 16.8642 18.345 16.6268 18.2114 16.4182C18.1432 16.3091 17.8227 15.6818 17.9796 15.5864C19.1392 14.9499 20.0542 13.9457 20.5802 12.7319C21.1062 11.5181 21.2134 10.1638 20.8849 8.88241C20.5564 7.60099 19.8108 6.46532 18.7657 5.65434C17.7206 4.84337 16.4354 4.4032 15.1125 4.4032C13.7897 4.4032 12.5044 4.84337 11.4593 5.65434C10.4142 6.46532 9.66862 7.60099 9.3401 8.88241C9.01158 10.1638 9.11878 11.5181 9.64481 12.7319C10.1708 13.9457 11.0858 14.9499 12.2455 15.5864C12.256 15.8951 12.1669 16.1991 11.9913 16.4532C11.8157 16.7074 11.563 16.8983 11.2705 16.9977C8.14774 18.1227 5.81592 20.4068 5.81592 22.9704V24.375C5.81592 24.7059 5.94737 25.0233 6.18137 25.2573C6.41536 25.4913 6.73273 25.6227 7.06365 25.6227H13.5546C13.7417 25.62 13.9253 25.5712 14.0892 25.4807C14.253 25.3901 14.3919 25.2605 14.4937 25.1034C14.5955 24.9464 14.657 24.7666 14.6728 24.5801C14.6886 24.3935 14.6581 24.206 14.5841 24.0341C14.4071 23.5894 14.3168 23.115 14.3182 22.6364Z" fill="white"/>
</g>
</svg>
